<svg width="100" height="116" viewBox="0 0 100 116" fill="none" xmlns="http://www.w3.org/2000/svg">
<path d="M50 0C21.2275 0 2.5 16.5855 2.5 45.3913V58C2.5 58 0 62.6728 0 68.087C0 75.337 5.845 81.1521 10 83.2174C14.74 103.159 37.5 116 50 116C62.5 116 85.26 103.159 90 83.2174C94.155 81.1521 100 74.4455 100 67.1955C100 61.7813 97.5 58 97.5 58V45.3913C97.5 11.3831 73.3447 9.4713 73.3447 9.4713C73.3447 9.4713 66.2025 0 50 0ZM50 10.087C65.1525 10.087 67.5391 19.3268 67.5391 19.3268C67.5391 19.3268 87.5 20.7438 87.5 45.3913V55.4783H86.6162C84.3187 45.298 77.9694 32.6351 66.1719 29.261C66.1719 29.261 54.693 46.7203 19.1455 45.3913L14.1455 55.4783H12.5V45.3913C12.5 22.9554 26.1675 10.087 50 10.087ZM68.5254 41.7762C72.3154 45.2007 78.6791 57.3923 78.7891 65.5652H89.8438C89.9352 66.0724 90 66.6054 90 67.1955C90 72.7584 81.3721 76.2629 81.3721 76.2629C81.3721 92.9644 58.5425 105.913 50 105.913C41.4575 105.913 18.6279 91.9683 18.6279 76.2629C18.6279 76.2629 10 73.7558 10 68.087C10 67.156 10.1107 66.3324 10.2588 65.5652H20.332L25.3418 55.4536C46.6193 55.1208 59.0179 51.2478 68.5254 41.7762Z" fill="#fff"/>
</svg>
